<mxfile host="app.diagrams.net" modified="2021-04-22T09:35:20.818Z" agent="5.0 (Windows NT 10.0; Win64; x64) AppleWebKit/537.36 (KHTML, like Gecko) Chrome/90.0.4430.72 Safari/537.36" etag="2hOeKZoToDMHedOGyWH8" version="14.6.5" type="github">
  <diagram id="RH-BXJlY21HK2ncOQb-6" name="Page-1">
    <mxGraphModel dx="1422" dy="706" grid="1" gridSize="10" guides="1" tooltips="1" connect="1" arrows="1" fold="1" page="1" pageScale="1" pageWidth="827" pageHeight="1169" math="0" shadow="0">
      <root>
        <mxCell id="0" />
        <mxCell id="1" parent="0" />
        <mxCell id="VPZMi2zPwCTPfSnQQ41B-2" value="&lt;font style=&quot;font-size: 30px&quot;&gt;&amp;nbsp;NPU&lt;/font&gt;" style="rounded=0;whiteSpace=wrap;html=1;fontSize=20;align=left;verticalAlign=top;" vertex="1" parent="1">
          <mxGeometry x="570" y="130" width="1030" height="940" as="geometry" />
        </mxCell>
        <mxCell id="VPZMi2zPwCTPfSnQQ41B-3" value="&lt;font style=&quot;font-size: 30px&quot;&gt;&amp;nbsp; &amp;nbsp; &amp;nbsp;&lt;br&gt;&amp;nbsp; &amp;nbsp; Cluster/Bank&lt;/font&gt;" style="rounded=1;whiteSpace=wrap;html=1;align=left;verticalAlign=top;fontSize=25;arcSize=19;fillColor=#f5f5f5;strokeColor=#666666;fontColor=#333333;" vertex="1" parent="1">
          <mxGeometry x="680" y="150" width="750" height="910" as="geometry" />
        </mxCell>
        <mxCell id="VPZMi2zPwCTPfSnQQ41B-4" value="&lt;font style=&quot;font-size: 25px&quot;&gt;&amp;nbsp; &amp;nbsp; &amp;nbsp;NPC&lt;/font&gt;" style="rounded=1;whiteSpace=wrap;html=1;align=left;verticalAlign=top;fontSize=25;" vertex="1" parent="1">
          <mxGeometry x="720" y="500" width="660" height="550" as="geometry" />
        </mxCell>
        <mxCell id="VPZMi2zPwCTPfSnQQ41B-21" style="edgeStyle=orthogonalEdgeStyle;rounded=0;orthogonalLoop=1;jettySize=auto;html=1;exitX=0.5;exitY=0;exitDx=0;exitDy=0;startArrow=open;startFill=0;endArrow=none;endFill=0;strokeColor=#000000;fontSize=20;" edge="1" parent="1" source="VPZMi2zPwCTPfSnQQ41B-23">
          <mxGeometry relative="1" as="geometry">
            <mxPoint x="1044.0951799665181" y="276" as="targetPoint" />
          </mxGeometry>
        </mxCell>
        <mxCell id="VPZMi2zPwCTPfSnQQ41B-22" style="edgeStyle=orthogonalEdgeStyle;rounded=0;orthogonalLoop=1;jettySize=auto;html=1;exitX=0.5;exitY=1;exitDx=0;exitDy=0;startArrow=none;startFill=0;endArrow=open;endFill=0;strokeColor=#000000;fontSize=20;" edge="1" parent="1" source="VPZMi2zPwCTPfSnQQ41B-23" target="VPZMi2zPwCTPfSnQQ41B-53">
          <mxGeometry relative="1" as="geometry">
            <Array as="points">
              <mxPoint x="830" y="450" />
            </Array>
          </mxGeometry>
        </mxCell>
        <mxCell id="VPZMi2zPwCTPfSnQQ41B-23" value="MC" style="rounded=0;whiteSpace=wrap;html=1;align=center;fontSize=20;" vertex="1" parent="1">
          <mxGeometry x="805.0951799665179" y="395" width="50" height="30" as="geometry" />
        </mxCell>
        <mxCell id="VPZMi2zPwCTPfSnQQ41B-24" style="edgeStyle=orthogonalEdgeStyle;rounded=0;orthogonalLoop=1;jettySize=auto;html=1;exitX=0.5;exitY=0;exitDx=0;exitDy=0;startArrow=open;startFill=0;endArrow=none;endFill=0;strokeColor=#000000;fontSize=20;" edge="1" parent="1" source="VPZMi2zPwCTPfSnQQ41B-25">
          <mxGeometry relative="1" as="geometry">
            <mxPoint x="1044.0951799665181" y="276" as="targetPoint" />
          </mxGeometry>
        </mxCell>
        <mxCell id="VPZMi2zPwCTPfSnQQ41B-25" value="MC" style="rounded=0;whiteSpace=wrap;html=1;align=center;fontSize=20;" vertex="1" parent="1">
          <mxGeometry x="865.0951799665179" y="395" width="50" height="30" as="geometry" />
        </mxCell>
        <mxCell id="VPZMi2zPwCTPfSnQQ41B-26" style="edgeStyle=orthogonalEdgeStyle;rounded=0;orthogonalLoop=1;jettySize=auto;html=1;exitX=0.5;exitY=0;exitDx=0;exitDy=0;startArrow=open;startFill=0;endArrow=none;endFill=0;strokeColor=#000000;fontSize=20;" edge="1" parent="1" source="VPZMi2zPwCTPfSnQQ41B-27">
          <mxGeometry relative="1" as="geometry">
            <mxPoint x="1044.0951799665181" y="276" as="targetPoint" />
          </mxGeometry>
        </mxCell>
        <mxCell id="VPZMi2zPwCTPfSnQQ41B-27" value="MC" style="rounded=0;whiteSpace=wrap;html=1;align=center;fontSize=20;" vertex="1" parent="1">
          <mxGeometry x="925.0951799665179" y="395" width="50" height="30" as="geometry" />
        </mxCell>
        <mxCell id="VPZMi2zPwCTPfSnQQ41B-28" style="edgeStyle=orthogonalEdgeStyle;rounded=0;orthogonalLoop=1;jettySize=auto;html=1;exitX=0.5;exitY=0;exitDx=0;exitDy=0;startArrow=open;startFill=0;endArrow=none;endFill=0;strokeColor=#000000;fontSize=20;" edge="1" parent="1" source="VPZMi2zPwCTPfSnQQ41B-29">
          <mxGeometry relative="1" as="geometry">
            <mxPoint x="1044.0951799665181" y="276" as="targetPoint" />
          </mxGeometry>
        </mxCell>
        <mxCell id="VPZMi2zPwCTPfSnQQ41B-29" value="MC" style="rounded=0;whiteSpace=wrap;html=1;align=center;fontSize=20;" vertex="1" parent="1">
          <mxGeometry x="985.0951799665179" y="395" width="50" height="30" as="geometry" />
        </mxCell>
        <mxCell id="VPZMi2zPwCTPfSnQQ41B-30" style="edgeStyle=orthogonalEdgeStyle;rounded=0;orthogonalLoop=1;jettySize=auto;html=1;exitX=0.5;exitY=0;exitDx=0;exitDy=0;startArrow=open;startFill=0;endArrow=none;endFill=0;strokeColor=#000000;fontSize=20;" edge="1" parent="1" source="VPZMi2zPwCTPfSnQQ41B-31">
          <mxGeometry relative="1" as="geometry">
            <mxPoint x="1044.0951799665181" y="276" as="targetPoint" />
          </mxGeometry>
        </mxCell>
        <mxCell id="VPZMi2zPwCTPfSnQQ41B-31" value="MC" style="rounded=0;whiteSpace=wrap;html=1;align=center;fontSize=20;" vertex="1" parent="1">
          <mxGeometry x="1045.095179966518" y="395" width="50" height="30" as="geometry" />
        </mxCell>
        <mxCell id="VPZMi2zPwCTPfSnQQ41B-32" style="edgeStyle=orthogonalEdgeStyle;rounded=0;orthogonalLoop=1;jettySize=auto;html=1;exitX=0.5;exitY=0;exitDx=0;exitDy=0;startArrow=open;startFill=0;endArrow=none;endFill=0;strokeColor=#000000;fontSize=20;" edge="1" parent="1" source="VPZMi2zPwCTPfSnQQ41B-33">
          <mxGeometry relative="1" as="geometry">
            <mxPoint x="1044.0951799665181" y="276" as="targetPoint" />
          </mxGeometry>
        </mxCell>
        <mxCell id="VPZMi2zPwCTPfSnQQ41B-33" value="MC" style="rounded=0;whiteSpace=wrap;html=1;align=center;fontSize=20;" vertex="1" parent="1">
          <mxGeometry x="1105.095179966518" y="395" width="50" height="30" as="geometry" />
        </mxCell>
        <mxCell id="VPZMi2zPwCTPfSnQQ41B-34" style="edgeStyle=orthogonalEdgeStyle;rounded=0;orthogonalLoop=1;jettySize=auto;html=1;exitX=0.5;exitY=0;exitDx=0;exitDy=0;startArrow=open;startFill=0;endArrow=none;endFill=0;strokeColor=#000000;fontSize=20;" edge="1" parent="1" source="VPZMi2zPwCTPfSnQQ41B-35">
          <mxGeometry relative="1" as="geometry">
            <mxPoint x="1044.0951799665181" y="276" as="targetPoint" />
          </mxGeometry>
        </mxCell>
        <mxCell id="VPZMi2zPwCTPfSnQQ41B-35" value="MC" style="rounded=0;whiteSpace=wrap;html=1;align=center;fontSize=20;" vertex="1" parent="1">
          <mxGeometry x="1165.095179966518" y="395" width="50" height="30" as="geometry" />
        </mxCell>
        <mxCell id="VPZMi2zPwCTPfSnQQ41B-36" style="edgeStyle=orthogonalEdgeStyle;rounded=0;orthogonalLoop=1;jettySize=auto;html=1;exitX=0.5;exitY=0;exitDx=0;exitDy=0;startArrow=open;startFill=0;endArrow=none;endFill=0;strokeColor=#000000;fontSize=20;" edge="1" parent="1" source="VPZMi2zPwCTPfSnQQ41B-38">
          <mxGeometry relative="1" as="geometry">
            <mxPoint x="1044.0951799665181" y="276" as="targetPoint" />
          </mxGeometry>
        </mxCell>
        <mxCell id="VPZMi2zPwCTPfSnQQ41B-37" style="edgeStyle=orthogonalEdgeStyle;rounded=0;orthogonalLoop=1;jettySize=auto;html=1;exitX=0.5;exitY=1;exitDx=0;exitDy=0;startArrow=none;startFill=0;endArrow=none;endFill=0;strokeColor=#000000;fontSize=20;" edge="1" parent="1" source="VPZMi2zPwCTPfSnQQ41B-38">
          <mxGeometry relative="1" as="geometry">
            <mxPoint x="830" y="450" as="targetPoint" />
            <Array as="points">
              <mxPoint x="1250" y="450" />
            </Array>
          </mxGeometry>
        </mxCell>
        <mxCell id="VPZMi2zPwCTPfSnQQ41B-38" value="MC" style="rounded=0;whiteSpace=wrap;html=1;align=center;fontSize=20;" vertex="1" parent="1">
          <mxGeometry x="1225.095179966518" y="395" width="50" height="30" as="geometry" />
        </mxCell>
        <mxCell id="VPZMi2zPwCTPfSnQQ41B-39" value="" style="endArrow=none;html=1;strokeColor=#000000;fontSize=20;" edge="1" parent="1">
          <mxGeometry width="50" height="50" relative="1" as="geometry">
            <mxPoint x="803" y="275.5" as="sourcePoint" />
            <mxPoint x="1420" y="276" as="targetPoint" />
            <Array as="points" />
          </mxGeometry>
        </mxCell>
        <mxCell id="VPZMi2zPwCTPfSnQQ41B-40" value="EDF" style="text;html=1;strokeColor=none;fillColor=none;align=center;verticalAlign=middle;whiteSpace=wrap;rounded=0;fontSize=20;" vertex="1" parent="1">
          <mxGeometry x="753.0951799665179" y="266" width="40" height="20" as="geometry" />
        </mxCell>
        <mxCell id="VPZMi2zPwCTPfSnQQ41B-155" value="" style="edgeStyle=orthogonalEdgeStyle;rounded=0;orthogonalLoop=1;jettySize=auto;html=1;entryX=1;entryY=0.5;entryDx=0;entryDy=0;exitX=0.5;exitY=1;exitDx=0;exitDy=0;" edge="1" parent="1" source="VPZMi2zPwCTPfSnQQ41B-48" target="VPZMi2zPwCTPfSnQQ41B-152">
          <mxGeometry relative="1" as="geometry" />
        </mxCell>
        <mxCell id="VPZMi2zPwCTPfSnQQ41B-48" value="MCU" style="rounded=0;whiteSpace=wrap;html=1;align=center;fontSize=20;" vertex="1" parent="1">
          <mxGeometry x="1000" y="530.67" width="110" height="74.83" as="geometry" />
        </mxCell>
        <mxCell id="VPZMi2zPwCTPfSnQQ41B-52" style="edgeStyle=orthogonalEdgeStyle;rounded=0;orthogonalLoop=1;jettySize=auto;html=1;exitX=1;exitY=0.25;exitDx=0;exitDy=0;entryX=0;entryY=0.75;entryDx=0;entryDy=0;startArrow=open;startFill=0;endArrow=open;endFill=0;strokeColor=#000000;fontSize=20;" edge="1" parent="1" source="VPZMi2zPwCTPfSnQQ41B-53" target="VPZMi2zPwCTPfSnQQ41B-40">
          <mxGeometry relative="1" as="geometry" />
        </mxCell>
        <mxCell id="VPZMi2zPwCTPfSnQQ41B-53" value="&lt;font style=&quot;font-size: 30px&quot;&gt;LLB(4MB*8）&lt;br&gt;&lt;/font&gt;" style="rounded=1;whiteSpace=wrap;html=1;align=center;direction=east;flipV=0;horizontal=0;fontSize=25;fillColor=#d5e8d4;strokeColor=#82b366;" vertex="1" parent="1">
          <mxGeometry x="610" y="630" width="50" height="430" as="geometry" />
        </mxCell>
        <mxCell id="VPZMi2zPwCTPfSnQQ41B-131" style="edgeStyle=orthogonalEdgeStyle;rounded=0;orthogonalLoop=1;jettySize=auto;html=1;exitX=0.75;exitY=0;exitDx=0;exitDy=0;entryX=0.5;entryY=1;entryDx=0;entryDy=0;" edge="1" parent="1" source="VPZMi2zPwCTPfSnQQ41B-54" target="VPZMi2zPwCTPfSnQQ41B-146">
          <mxGeometry relative="1" as="geometry">
            <mxPoint x="1190" y="750" as="targetPoint" />
          </mxGeometry>
        </mxCell>
        <mxCell id="VPZMi2zPwCTPfSnQQ41B-156" style="edgeStyle=orthogonalEdgeStyle;rounded=0;orthogonalLoop=1;jettySize=auto;html=1;exitX=0.25;exitY=0;exitDx=0;exitDy=0;entryX=0.5;entryY=1;entryDx=0;entryDy=0;" edge="1" parent="1" source="VPZMi2zPwCTPfSnQQ41B-54" target="VPZMi2zPwCTPfSnQQ41B-154">
          <mxGeometry relative="1" as="geometry" />
        </mxCell>
        <mxCell id="VPZMi2zPwCTPfSnQQ41B-54" value="&lt;font style=&quot;font-size: 20px&quot;&gt;NCP&lt;/font&gt;" style="rounded=1;whiteSpace=wrap;html=1;align=left;verticalAlign=top;fontSize=20;fillColor=#f8cecc;strokeColor=#b85450;" vertex="1" parent="1">
          <mxGeometry x="740" y="790" width="600" height="240" as="geometry" />
        </mxCell>
        <mxCell id="VPZMi2zPwCTPfSnQQ41B-60" value="×8" style="text;html=1;strokeColor=none;fillColor=none;align=center;verticalAlign=middle;whiteSpace=wrap;rounded=0;fontSize=20;" vertex="1" parent="1">
          <mxGeometry x="1340" y="875" width="40" height="20" as="geometry" />
        </mxCell>
        <mxCell id="VPZMi2zPwCTPfSnQQ41B-61" value="×8" style="text;html=1;strokeColor=none;fillColor=none;align=center;verticalAlign=middle;whiteSpace=wrap;rounded=0;fontSize=20;" vertex="1" parent="1">
          <mxGeometry x="1380" y="740" width="40" height="20" as="geometry" />
        </mxCell>
        <mxCell id="VPZMi2zPwCTPfSnQQ41B-62" style="edgeStyle=orthogonalEdgeStyle;rounded=0;orthogonalLoop=1;jettySize=auto;html=1;exitX=0.5;exitY=1;exitDx=0;exitDy=0;startArrow=open;startFill=0;endArrow=open;endFill=0;strokeColor=#000000;fontSize=20;" edge="1" parent="1" source="VPZMi2zPwCTPfSnQQ41B-63">
          <mxGeometry relative="1" as="geometry">
            <mxPoint x="1018.9310344827586" y="170" as="targetPoint" />
          </mxGeometry>
        </mxCell>
        <mxCell id="VPZMi2zPwCTPfSnQQ41B-63" value="&lt;font style=&quot;font-size: 35px&quot;&gt;System Memory&lt;/font&gt;" style="rounded=1;whiteSpace=wrap;html=1;fontSize=20;align=center;" vertex="1" parent="1">
          <mxGeometry x="589" y="40" width="860" height="60" as="geometry" />
        </mxCell>
        <mxCell id="VPZMi2zPwCTPfSnQQ41B-72" value="" style="endArrow=none;html=1;strokeColor=#000000;fontSize=20;" edge="1" parent="1">
          <mxGeometry width="50" height="50" relative="1" as="geometry">
            <mxPoint x="803" y="308.5" as="sourcePoint" />
            <mxPoint x="1420" y="309" as="targetPoint" />
            <Array as="points" />
          </mxGeometry>
        </mxCell>
        <mxCell id="VPZMi2zPwCTPfSnQQ41B-73" value="ECF" style="text;html=1;strokeColor=none;fillColor=none;align=center;verticalAlign=middle;whiteSpace=wrap;rounded=0;fontSize=20;" vertex="1" parent="1">
          <mxGeometry x="745.0951799665179" y="299" width="40" height="20" as="geometry" />
        </mxCell>
        <mxCell id="VPZMi2zPwCTPfSnQQ41B-74" value="" style="endArrow=classic;html=1;strokeColor=#000000;fontSize=20;" edge="1" parent="1">
          <mxGeometry width="50" height="50" relative="1" as="geometry">
            <mxPoint x="1310" y="310" as="sourcePoint" />
            <mxPoint x="1310" y="570" as="targetPoint" />
          </mxGeometry>
        </mxCell>
        <mxCell id="VPZMi2zPwCTPfSnQQ41B-75" value="" style="ellipse;whiteSpace=wrap;html=1;aspect=fixed;fontSize=20;align=center;fillColor=#FF0000;" vertex="1" parent="1">
          <mxGeometry x="1300" y="425" width="13" height="13" as="geometry" />
        </mxCell>
        <mxCell id="VPZMi2zPwCTPfSnQQ41B-79" value="" style="curved=1;endArrow=classic;html=1;strokeColor=#000000;fontSize=20;exitX=0.5;exitY=0;exitDx=0;exitDy=0;startArrow=open;startFill=0;entryX=1;entryY=0.5;entryDx=0;entryDy=0;" edge="1" parent="1" source="VPZMi2zPwCTPfSnQQ41B-48" target="VPZMi2zPwCTPfSnQQ41B-87">
          <mxGeometry width="50" height="50" relative="1" as="geometry">
            <mxPoint x="1078.5" y="525.1666259765625" as="sourcePoint" />
            <mxPoint x="1210" y="280" as="targetPoint" />
            <Array as="points">
              <mxPoint x="1050" y="470" />
              <mxPoint x="620" y="400" />
              <mxPoint x="690" y="250" />
            </Array>
          </mxGeometry>
        </mxCell>
        <mxCell id="VPZMi2zPwCTPfSnQQ41B-80" value="" style="ellipse;whiteSpace=wrap;html=1;aspect=fixed;fontSize=20;align=center;fillColor=#0000FF;" vertex="1" parent="1">
          <mxGeometry x="1224" y="279.4444274902344" width="13" height="13" as="geometry" />
        </mxCell>
        <mxCell id="VPZMi2zPwCTPfSnQQ41B-83" value="" style="ellipse;whiteSpace=wrap;html=1;aspect=fixed;fontSize=20;align=center;fillColor=#0000FF;" vertex="1" parent="1">
          <mxGeometry x="1293.357142857143" y="605.5" width="13" height="13" as="geometry" />
        </mxCell>
        <mxCell id="VPZMi2zPwCTPfSnQQ41B-86" value="×4" style="text;html=1;strokeColor=none;fillColor=none;align=center;verticalAlign=middle;whiteSpace=wrap;rounded=0;fontSize=20;" vertex="1" parent="1">
          <mxGeometry x="1430" y="605.5" width="40" height="20" as="geometry" />
        </mxCell>
        <mxCell id="VPZMi2zPwCTPfSnQQ41B-87" value="32bit ctrl NoC" style="rounded=0;whiteSpace=wrap;html=1;align=left;fillColor=#dae8fc;strokeColor=#6c8ebf;" vertex="1" parent="1">
          <mxGeometry x="481" y="135" width="89" height="40" as="geometry" />
        </mxCell>
        <mxCell id="VPZMi2zPwCTPfSnQQ41B-88" value="512bit data NoC" style="rounded=0;whiteSpace=wrap;html=1;align=left;fillColor=#f8cecc;strokeColor=#b85450;" vertex="1" parent="1">
          <mxGeometry x="480" y="200" width="89" height="40" as="geometry" />
        </mxCell>
        <mxCell id="VPZMi2zPwCTPfSnQQ41B-94" value="" style="group" vertex="1" connectable="0" parent="1">
          <mxGeometry x="895.9999999999999" y="190" width="149.10000000000002" height="60" as="geometry" />
        </mxCell>
        <mxCell id="VPZMi2zPwCTPfSnQQ41B-42" value="&lt;font style=&quot;font-size: 20px&quot;&gt;DMA ctrl&lt;/font&gt;" style="rounded=0;whiteSpace=wrap;html=1;align=center;fontSize=20;" vertex="1" parent="VPZMi2zPwCTPfSnQQ41B-94">
          <mxGeometry width="149.1" height="40" as="geometry" />
        </mxCell>
        <mxCell id="VPZMi2zPwCTPfSnQQ41B-90" value="read" style="rounded=0;whiteSpace=wrap;html=1;align=center;" vertex="1" parent="VPZMi2zPwCTPfSnQQ41B-94">
          <mxGeometry x="1.1368683772161603e-13" y="40" width="64" height="20" as="geometry" />
        </mxCell>
        <mxCell id="VPZMi2zPwCTPfSnQQ41B-91" value="write" style="rounded=0;whiteSpace=wrap;html=1;align=center;" vertex="1" parent="VPZMi2zPwCTPfSnQQ41B-94">
          <mxGeometry x="84.00000000000011" y="40" width="65.1" height="20" as="geometry" />
        </mxCell>
        <mxCell id="VPZMi2zPwCTPfSnQQ41B-95" value="" style="group" vertex="1" connectable="0" parent="1">
          <mxGeometry x="1090" y="190" width="149.10000000000002" height="60" as="geometry" />
        </mxCell>
        <mxCell id="VPZMi2zPwCTPfSnQQ41B-96" value="&lt;font style=&quot;font-size: 20px&quot;&gt;DMA ctrl&lt;/font&gt;" style="rounded=0;whiteSpace=wrap;html=1;align=center;fontSize=20;" vertex="1" parent="VPZMi2zPwCTPfSnQQ41B-95">
          <mxGeometry width="149.1" height="40" as="geometry" />
        </mxCell>
        <mxCell id="VPZMi2zPwCTPfSnQQ41B-97" value="read" style="rounded=0;whiteSpace=wrap;html=1;align=center;" vertex="1" parent="VPZMi2zPwCTPfSnQQ41B-95">
          <mxGeometry x="1.1368683772161603e-13" y="40" width="64" height="20" as="geometry" />
        </mxCell>
        <mxCell id="VPZMi2zPwCTPfSnQQ41B-98" value="write" style="rounded=0;whiteSpace=wrap;html=1;align=center;" vertex="1" parent="VPZMi2zPwCTPfSnQQ41B-95">
          <mxGeometry x="84.00000000000011" y="40" width="65.1" height="20" as="geometry" />
        </mxCell>
        <mxCell id="VPZMi2zPwCTPfSnQQ41B-99" value="&lt;font style=&quot;font-size: 20px&quot;&gt;DDR ctrl&lt;br&gt;32GB/channel&lt;br&gt;&lt;/font&gt;" style="rounded=0;whiteSpace=wrap;html=1;align=center;fontSize=20;" vertex="1" parent="1">
          <mxGeometry x="1250" y="216" width="149.1" height="50" as="geometry" />
        </mxCell>
        <mxCell id="VPZMi2zPwCTPfSnQQ41B-101" value="&lt;font style=&quot;font-size: 20px&quot;&gt;EP PCIe ctrl&lt;br&gt;&lt;/font&gt;" style="rounded=0;whiteSpace=wrap;html=1;align=center;fontSize=20;fillColor=#e1d5e7;strokeColor=#9673a6;" vertex="1" parent="1">
          <mxGeometry x="1450.9" y="160" width="149.1" height="50" as="geometry" />
        </mxCell>
        <mxCell id="VPZMi2zPwCTPfSnQQ41B-102" value="&lt;font style=&quot;font-size: 20px&quot;&gt;RC PCIe ctrl&lt;br&gt;&lt;/font&gt;" style="rounded=0;whiteSpace=wrap;html=1;align=center;fontSize=20;fillColor=#e1d5e7;strokeColor=#9673a6;" vertex="1" parent="1">
          <mxGeometry x="1450.9" y="216" width="149.1" height="50" as="geometry" />
        </mxCell>
        <mxCell id="VPZMi2zPwCTPfSnQQ41B-103" value="&lt;font style=&quot;font-size: 20px&quot;&gt;HW sync&lt;br&gt;&lt;/font&gt;" style="rounded=0;whiteSpace=wrap;html=1;align=center;fontSize=20;" vertex="1" parent="1">
          <mxGeometry x="1449" y="460" width="149.1" height="50" as="geometry" />
        </mxCell>
        <mxCell id="VPZMi2zPwCTPfSnQQ41B-104" value="&lt;font style=&quot;font-size: 30px&quot;&gt;DDR&lt;/font&gt;" style="rounded=1;whiteSpace=wrap;html=1;align=center;direction=east;flipV=0;horizontal=0;fontSize=25;fillColor=#1ba1e2;strokeColor=#006EAF;fontColor=#ffffff;" vertex="1" parent="1">
          <mxGeometry x="414" y="260" width="50" height="810" as="geometry" />
        </mxCell>
        <mxCell id="VPZMi2zPwCTPfSnQQ41B-105" value="&lt;font style=&quot;font-size: 20px&quot;&gt;A53&lt;br&gt;&lt;/font&gt;" style="rounded=0;whiteSpace=wrap;html=1;align=center;fontSize=20;fillColor=#dae8fc;strokeColor=#6c8ebf;" vertex="1" parent="1">
          <mxGeometry x="1449" y="670" width="149.1" height="50" as="geometry" />
        </mxCell>
        <mxCell id="VPZMi2zPwCTPfSnQQ41B-106" value="&lt;font style=&quot;font-size: 20px&quot;&gt;&lt;span class=&quot;fontstyle0&quot;&gt;Peripheral&lt;br&gt;&lt;/span&gt;flash/sensor/..&lt;br style=&quot;line-height: normal&quot;&gt;&lt;/font&gt;" style="rounded=0;whiteSpace=wrap;html=1;align=center;fontSize=20;fillColor=#e1d5e7;strokeColor=#9673a6;" vertex="1" parent="1">
          <mxGeometry x="1450.9" y="760" width="149.1" height="50" as="geometry" />
        </mxCell>
        <mxCell id="VPZMi2zPwCTPfSnQQ41B-107" value="&lt;font style=&quot;font-size: 20px&quot;&gt;&lt;span class=&quot;fontstyle0&quot;&gt;Peripheral&lt;br&gt;&lt;/span&gt;flash/sensor/..&lt;br style=&quot;line-height: normal&quot;&gt;&lt;/font&gt;" style="rounded=0;whiteSpace=wrap;html=1;align=center;fontSize=20;fillColor=#e1d5e7;strokeColor=#9673a6;" vertex="1" parent="1">
          <mxGeometry x="1449" y="820.17" width="149.1" height="50" as="geometry" />
        </mxCell>
        <mxCell id="VPZMi2zPwCTPfSnQQ41B-108" value="128T fp16&lt;br&gt;256T int8" style="text;html=1;strokeColor=none;fillColor=none;align=center;verticalAlign=middle;whiteSpace=wrap;rounded=0;" vertex="1" parent="1">
          <mxGeometry x="1508.1" y="1040" width="90" height="20" as="geometry" />
        </mxCell>
        <mxCell id="VPZMi2zPwCTPfSnQQ41B-110" value="" style="edgeStyle=elbowEdgeStyle;elbow=horizontal;endArrow=classic;html=1;entryX=0.5;entryY=0;entryDx=0;entryDy=0;exitX=0;exitY=0.5;exitDx=0;exitDy=0;" edge="1" parent="1" source="VPZMi2zPwCTPfSnQQ41B-87" target="VPZMi2zPwCTPfSnQQ41B-104">
          <mxGeometry width="50" height="50" relative="1" as="geometry">
            <mxPoint x="450" y="190" as="sourcePoint" />
            <mxPoint x="500" y="140" as="targetPoint" />
            <Array as="points">
              <mxPoint x="439" y="190" />
            </Array>
          </mxGeometry>
        </mxCell>
        <mxCell id="VPZMi2zPwCTPfSnQQ41B-111" value="I-Cache 64K" style="rounded=0;whiteSpace=wrap;html=1;align=center;" vertex="1" parent="1">
          <mxGeometry x="600" y="260" width="100" height="40" as="geometry" />
        </mxCell>
        <mxCell id="VPZMi2zPwCTPfSnQQ41B-113" value="D-Cache 64K" style="rounded=0;whiteSpace=wrap;html=1;align=center;" vertex="1" parent="1">
          <mxGeometry x="600" y="319" width="100" height="40" as="geometry" />
        </mxCell>
        <mxCell id="VPZMi2zPwCTPfSnQQ41B-116" value="MTE" style="rounded=0;whiteSpace=wrap;html=1;align=center;fontSize=20;" vertex="1" parent="1">
          <mxGeometry x="827.0000000000001" y="530.67" width="110" height="74.83" as="geometry" />
        </mxCell>
        <mxCell id="VPZMi2zPwCTPfSnQQ41B-124" style="edgeStyle=orthogonalEdgeStyle;rounded=0;orthogonalLoop=1;jettySize=auto;html=1;exitX=1;exitY=0.5;exitDx=0;exitDy=0;entryX=0.5;entryY=0;entryDx=0;entryDy=0;" edge="1" parent="1" source="VPZMi2zPwCTPfSnQQ41B-48" target="VPZMi2zPwCTPfSnQQ41B-146">
          <mxGeometry relative="1" as="geometry">
            <mxPoint x="1190" y="640" as="targetPoint" />
          </mxGeometry>
        </mxCell>
        <mxCell id="VPZMi2zPwCTPfSnQQ41B-134" value="&lt;span style=&quot;font-size: 20px&quot;&gt;VME(fp16)&lt;/span&gt;" style="rounded=1;whiteSpace=wrap;html=1;align=center;direction=south;" vertex="1" parent="1">
          <mxGeometry x="775" y="850" width="115" height="120" as="geometry" />
        </mxCell>
        <mxCell id="VPZMi2zPwCTPfSnQQ41B-135" value="&lt;span style=&quot;font-size: 20px&quot;&gt;MME&lt;br&gt;fp16: 32*64&lt;br&gt;int8: 32*128&lt;br&gt;&lt;/span&gt;" style="rounded=1;whiteSpace=wrap;html=1;align=center;" vertex="1" parent="1">
          <mxGeometry x="1105.1" y="850" width="155" height="120" as="geometry" />
        </mxCell>
        <mxCell id="VPZMi2zPwCTPfSnQQ41B-136" value="&lt;span style=&quot;font-size: 20px&quot;&gt;Data Input&lt;br&gt;Buffer&lt;br&gt;&lt;/span&gt;" style="rounded=1;whiteSpace=wrap;html=1;align=center;direction=south;" vertex="1" parent="1">
          <mxGeometry x="950" y="850" width="115" height="120" as="geometry" />
        </mxCell>
        <mxCell id="VPZMi2zPwCTPfSnQQ41B-146" value="IM Buffer 256K" style="rounded=0;whiteSpace=wrap;html=1;align=center;fontSize=20;horizontal=1;fillColor=#fff2cc;strokeColor=#d6b656;" vertex="1" parent="1">
          <mxGeometry x="1080" y="690" width="220" height="30" as="geometry" />
        </mxCell>
        <mxCell id="VPZMi2zPwCTPfSnQQ41B-147" value="" style="group" vertex="1" connectable="0" parent="1">
          <mxGeometry x="750" y="650" width="240.0999999999999" height="110" as="geometry" />
        </mxCell>
        <mxCell id="VPZMi2zPwCTPfSnQQ41B-148" value="L1 Buffer(1.25M)" style="rounded=0;whiteSpace=wrap;html=1;align=center;fontSize=20;horizontal=1;verticalAlign=top;fillColor=#fff2cc;strokeColor=#d6b656;" vertex="1" parent="VPZMi2zPwCTPfSnQQ41B-147">
          <mxGeometry width="240" height="110" as="geometry" />
        </mxCell>
        <mxCell id="VPZMi2zPwCTPfSnQQ41B-149" value="&lt;font style=&quot;font-size: 16px&quot;&gt;256K data&lt;/font&gt;" style="rounded=0;whiteSpace=wrap;html=1;align=center;fillColor=#fff2cc;strokeColor=#d6b656;" vertex="1" parent="VPZMi2zPwCTPfSnQQ41B-147">
          <mxGeometry y="30" width="123" height="20" as="geometry" />
        </mxCell>
        <mxCell id="VPZMi2zPwCTPfSnQQ41B-150" value="&lt;font style=&quot;font-size: 16px&quot;&gt;256K data&lt;/font&gt;" style="rounded=0;whiteSpace=wrap;html=1;align=center;fillColor=#fff2cc;strokeColor=#d6b656;" vertex="1" parent="VPZMi2zPwCTPfSnQQ41B-147">
          <mxGeometry x="123" y="30" width="117" height="20" as="geometry" />
        </mxCell>
        <mxCell id="VPZMi2zPwCTPfSnQQ41B-151" value="&lt;font style=&quot;font-size: 16px&quot;&gt;256K data&lt;/font&gt;" style="rounded=0;whiteSpace=wrap;html=1;align=center;fillColor=#fff2cc;strokeColor=#d6b656;" vertex="1" parent="VPZMi2zPwCTPfSnQQ41B-147">
          <mxGeometry y="50" width="123" height="20" as="geometry" />
        </mxCell>
        <mxCell id="VPZMi2zPwCTPfSnQQ41B-152" value="&lt;font style=&quot;font-size: 16px&quot;&gt;256K data&lt;/font&gt;" style="rounded=0;whiteSpace=wrap;html=1;align=center;fillColor=#fff2cc;strokeColor=#d6b656;" vertex="1" parent="VPZMi2zPwCTPfSnQQ41B-147">
          <mxGeometry x="123" y="50" width="117" height="20" as="geometry" />
        </mxCell>
        <mxCell id="VPZMi2zPwCTPfSnQQ41B-153" value="&lt;font style=&quot;font-size: 16px&quot;&gt;128K weight&lt;/font&gt;" style="rounded=0;whiteSpace=wrap;html=1;align=center;fillColor=#fff2cc;strokeColor=#d6b656;" vertex="1" parent="VPZMi2zPwCTPfSnQQ41B-147">
          <mxGeometry y="70" width="240" height="20" as="geometry" />
        </mxCell>
        <mxCell id="VPZMi2zPwCTPfSnQQ41B-154" value="&lt;font style=&quot;font-size: 16px&quot;&gt;128K weight&lt;/font&gt;" style="rounded=0;whiteSpace=wrap;html=1;align=center;fillColor=#fff2cc;strokeColor=#d6b656;" vertex="1" parent="VPZMi2zPwCTPfSnQQ41B-147">
          <mxGeometry x="0.09999999999990905" y="90" width="240" height="20" as="geometry" />
        </mxCell>
        <mxCell id="VPZMi2zPwCTPfSnQQ41B-158" value="" style="edgeStyle=elbowEdgeStyle;elbow=vertical;endArrow=classic;html=1;entryX=0.5;entryY=1;entryDx=0;entryDy=0;exitX=-0.018;exitY=0.419;exitDx=0;exitDy=0;exitPerimeter=0;" edge="1" parent="1" source="VPZMi2zPwCTPfSnQQ41B-116" target="VPZMi2zPwCTPfSnQQ41B-88">
          <mxGeometry width="50" height="50" relative="1" as="geometry">
            <mxPoint x="510" y="420" as="sourcePoint" />
            <mxPoint x="560" y="370" as="targetPoint" />
            <Array as="points">
              <mxPoint x="680" y="562" />
            </Array>
          </mxGeometry>
        </mxCell>
      </root>
    </mxGraphModel>
  </diagram>
</mxfile>
